<svg xmlns="http://www.w3.org/2000/svg" width="800" height="800" viewBox="0 0 24 24" fill="none">
    <style>
        @media (prefers-color-scheme: dark) {
            .main {
                stroke: #00fff2
            }
        }
    </style>
    <path class="main"
        d="M15 18H9M20 3h-1m0 0H5m14 0a7.773 7.773 0 0 1-3.255 6.325L12 12M5 3H4m1 0a7.773 7.773 0 0 0 3.255 6.325L12 12m8 9h-1m0 0H5m14 0a7.773 7.773 0 0 0-3.255-6.325L12 12m-7 9H4m1 0a7.773 7.773 0 0 1 3.255-6.325L12 12"
        stroke="#ff00ea" stroke-width="2" stroke-linecap="round" stroke-linejoin="round" />
</svg>